<svg width="462" height="111" viewBox="0 0 462 111" fill="none" xmlns="http://www.w3.org/2000/svg">
<path d="M45.969 57.661C46.9443 57.8663 47.894 58.0973 48.818 58.354C49.7933 58.6107 50.7687 58.9443 51.744 59.355C53.6947 60.1763 55.363 61.665 56.749 63.821C58.1863 65.9257 58.8537 68.6207 58.751 71.906C58.6997 73.4973 58.4173 75.0373 57.904 76.526C57.3907 78.0147 56.672 79.4263 55.748 80.761C53.8487 83.379 51.0253 85.304 47.278 86.536C43.5307 87.768 39.2187 88.384 34.342 88.384C29.4653 88.4867 25.718 88.4097 23.1 88.153C20.3793 87.8963 18.7367 87.2033 18.172 86.074C18.172 79.5033 18.172 73.3177 18.172 67.517C18.172 61.665 18.1977 56.2237 18.249 51.193C18.249 41.1317 18.403 34.9203 18.711 32.559C19.8917 31.5323 22.715 30.711 27.181 30.095C29.3883 29.8383 31.724 29.7357 34.188 29.787C36.652 29.8383 39.2187 30.1207 41.888 30.634C47.1753 31.6093 50.8713 34.1247 52.976 38.18C54.8753 42.2353 55.1833 45.8543 53.9 49.037C52.668 52.2197 51.205 54.35 49.511 55.428C48.6383 55.9927 47.894 56.4547 47.278 56.814C46.7133 57.1733 46.277 57.4557 45.969 57.661ZM21.868 55.967C26.7447 56.1723 31.4673 56.1723 36.036 55.967C38.2947 55.8643 40.271 55.6333 41.965 55.274C43.7103 54.8633 45.1477 54.2987 46.277 53.58C48.433 52.194 49.9217 50.0637 50.743 47.189C51.5643 44.3657 51.1023 41.6707 49.357 39.104C47.509 36.5887 44.352 34.946 39.886 34.176C35.3173 33.406 29.3883 33.791 22.099 35.331L21.868 55.967ZM21.714 83.533C25.3587 84.303 29.4653 84.6623 34.034 84.611C38.808 84.611 42.8633 84.0463 46.2 82.917C49.588 81.7877 51.9493 80.1963 53.284 78.143C54.7213 76.0897 55.4657 74.0363 55.517 71.983C55.6197 69.981 55.2347 68.133 54.362 66.439C53.4893 64.745 51.821 63.3847 49.357 62.358C46.739 61.434 42.6837 60.895 37.191 60.741C34.4703 60.6897 31.8267 60.6897 29.26 60.741C26.6933 60.741 24.2037 60.7923 21.791 60.895L21.714 83.533ZM132.748 30.557C134.288 30.6597 135.032 31.2243 134.981 32.251C134.93 33.329 134.185 34.022 132.748 34.33L99.561 34.253L100.023 57.815L129.052 57.738C130.489 57.9947 131.208 58.585 131.208 59.509C131.208 60.5357 130.489 61.1773 129.052 61.434L99.946 61.588L99.561 84.996L129.976 85.15C131.413 85.5093 132.132 86.1767 132.132 87.152C132.132 88.076 131.388 88.6663 129.899 88.923C119.838 88.8717 112.138 88.846 106.799 88.846C101.46 88.846 98.5087 88.8203 97.944 88.769C96.7633 88.769 96.173 88.1273 96.173 86.844C96.2243 85.9713 96.2757 84.2517 96.327 81.685C96.3783 79.1183 96.4297 75.679 96.481 71.367C96.5323 67.0037 96.5323 61.7677 96.481 55.659C96.4297 49.499 96.327 42.4407 96.173 34.484C96.019 32.3793 96.558 31.096 97.79 30.634L132.748 30.557ZM175.868 31.173C177.459 31.5323 178.127 32.3023 177.87 33.483V56.737C187.213 57.5583 193.09 56.1467 195.503 52.502C196.684 50.7053 197.762 48.575 198.737 46.111C199.712 43.647 200.559 40.8493 201.278 37.718C203.177 33.56 205.847 31.3013 209.286 30.942C210.056 30.8393 210.852 30.788 211.673 30.788C212.546 30.7367 213.393 30.7623 214.214 30.865C214.984 31.1217 215.292 31.8403 215.138 33.021C214.83 33.5857 214.163 33.791 213.136 33.637C208.978 32.713 205.975 34.792 204.127 39.874C201.509 49.576 198.403 55.5307 194.81 57.738L211.519 85.458C212.648 86.7927 212.879 87.845 212.212 88.615C211.442 89.385 210.338 89.0257 208.901 87.537L191.114 59.817C188.599 60.0223 186.212 60.1507 183.953 60.202C181.694 60.2533 179.538 60.2533 177.485 60.202L177.562 87.229C177.254 88.2043 176.356 88.615 174.867 88.461C174.148 87.7937 173.892 86.9723 174.097 85.997L174.328 32.405C174.431 31.635 174.944 31.2243 175.868 31.173ZM270.809 86.536C270.552 88.2813 269.962 89.1797 269.038 89.231C268.114 89.2823 267.524 88.461 267.267 86.767V34.407L249.557 34.561C248.171 34.9203 247.478 34.3557 247.478 32.867C247.478 31.3783 248.12 30.711 249.403 30.865L289.751 30.942C290.829 31.1987 291.394 31.8147 291.445 32.79C291.548 33.714 290.983 34.3043 289.751 34.561H271.04L270.809 86.536ZM347.424 29.71C352.609 30.326 356.459 31.5837 358.974 33.483C360.206 34.4583 361.335 35.5363 362.362 36.717C363.389 37.8977 364.287 39.181 365.057 40.567C365.827 41.953 366.494 43.5187 367.059 45.264C367.624 47.0093 368.111 48.9343 368.522 51.039C369.343 55.197 369.6 59.1753 369.292 62.974C369.138 64.8733 368.856 66.7213 368.445 68.518C368.034 70.2633 367.521 71.9573 366.905 73.6C365.57 76.988 363.825 79.9397 361.669 82.455C359.41 85.1757 356.921 86.921 354.2 87.691C351.377 88.615 348.528 89.077 345.653 89.077C344.216 89.077 342.778 88.923 341.341 88.615C339.955 88.2557 338.518 87.768 337.029 87.152C334.154 85.8687 331.665 83.8153 329.56 80.992C328.533 79.5547 327.609 77.989 326.788 76.295C326.018 74.5497 325.402 72.7017 324.94 70.751C324.427 68.749 324.042 66.6187 323.785 64.36C323.528 62.1013 323.426 59.74 323.477 57.276C323.528 54.812 323.785 52.4763 324.247 50.269C324.76 48.0103 325.428 45.88 326.249 43.878C327.994 39.9253 330.715 36.563 334.411 33.791C338.158 31.0703 342.496 29.71 347.424 29.71ZM348.117 33.021C343.394 32.9183 339.211 34.2787 335.566 37.102C331.921 39.9253 329.432 44.109 328.097 49.653C327.378 52.4763 326.942 55.2227 326.788 57.892C326.685 60.51 326.839 63.0767 327.25 65.592C327.661 68.1073 328.2 70.3917 328.867 72.445C329.586 74.447 330.458 76.218 331.485 77.758C333.487 80.7353 336.054 82.917 339.185 84.303C342.316 85.7403 346.038 86.0483 350.35 85.227C354.611 84.3543 357.973 82.1213 360.437 78.528C362.901 74.7807 364.595 70.3917 365.519 65.361C366.443 60.3303 366.289 55.197 365.057 49.961C363.825 44.879 361.977 41.029 359.513 38.411C357.1 35.8443 353.302 34.0477 348.117 33.021ZM412.489 31.096C414.594 31.096 416.493 31.1217 418.187 31.173C419.932 31.2243 421.447 31.3013 422.73 31.404C424.065 31.5067 425.451 31.712 426.888 32.02C428.377 32.328 429.917 32.6873 431.508 33.098C434.639 34.1247 437.052 35.5877 438.746 37.487C439.619 38.4623 440.337 39.489 440.902 40.567C441.518 41.645 442.006 42.7743 442.365 43.955C443.032 46.3163 443.417 48.498 443.52 50.5C443.623 52.4507 443.263 54.4527 442.442 56.506C442.083 57.5327 441.518 58.6107 440.748 59.74C440.029 60.818 439.105 61.896 437.976 62.974C435.769 65.1813 432.945 66.67 429.506 67.44C425.964 68.21 422.679 68.672 419.65 68.826C418.11 68.8773 416.288 68.9287 414.183 68.98C412.13 69.0313 409.82 69.0313 407.253 68.98L407.33 87.075C407.33 88.7177 406.765 89.539 405.636 89.539C404.455 89.539 403.942 88.7177 404.096 87.075L403.788 34.715C403.531 33.175 403.968 32.0713 405.097 31.404L412.489 31.096ZM407.176 65.515C409.743 65.5663 412.001 65.592 413.952 65.592C415.954 65.592 417.648 65.592 419.034 65.592C421.806 65.592 424.835 65.207 428.12 64.437C431.508 63.5643 434.023 62.2297 435.666 60.433C437.36 58.6363 438.643 56.6857 439.516 54.581C440.286 52.4763 440.491 50.0893 440.132 47.42C439.773 44.802 438.489 42.2353 436.282 39.72C434.177 37.41 430.558 35.8957 425.425 35.177C422.91 34.8177 420.112 34.6123 417.032 34.561C414.003 34.5097 410.667 34.5867 407.022 34.792L407.176 65.515Z" fill="white"/>
</svg>
