<svg width="77" height="77" viewBox="0 0 77 77" fill="none" xmlns="http://www.w3.org/2000/svg">
<path d="M41.597 3.08854C41.597 1.42012 40.173 0 38.5 0C36.827 0 35.4045 1.42012 35.4045 3.08854V10.5374C35.4045 12.2058 36.8285 13.6259 38.5015 13.6259C40.1715 13.6259 41.5955 12.2058 41.5955 10.5374L41.597 3.08854ZM56.077 16.607C54.9035 17.8136 54.9035 19.8015 56.077 20.9718C57.287 22.1784 59.2439 22.2133 60.4887 20.9718L65.7916 15.6849C66.3733 15.0995 66.6997 14.3086 66.6997 13.4843C66.6997 12.6601 66.3733 11.8692 65.7916 11.2838C64.6165 10.1135 62.6247 10.1135 61.4148 11.2838L56.077 16.607ZM16.5113 20.9718C17.6848 22.1784 19.6781 22.1784 20.8866 20.9718C22.0616 19.8363 22.0616 17.7773 20.923 16.607L15.6216 11.2838C14.483 10.1483 12.4548 10.1135 11.2449 11.2838C10.0698 12.4556 10.0698 14.4783 11.2084 15.6486L16.5113 20.9718ZM38.5 20.404C28.5729 20.404 20.3537 28.6008 20.3537 38.5008C20.3537 48.4007 28.5714 56.6338 38.5 56.6338C48.3922 56.6338 56.6114 48.4007 56.6114 38.5008C56.6114 28.6008 48.3922 20.404 38.5 20.404ZM38.5 25.8332C45.4379 25.8332 51.2023 31.5818 51.2023 38.5008C51.2023 45.4197 45.4379 51.2031 38.5 51.2031C31.5257 51.2031 25.7628 45.4197 25.7628 38.5008C25.7628 31.5818 31.5257 25.8332 38.5 25.8332ZM73.903 41.5878C75.576 41.5878 77 40.1692 77 38.5008C77 36.8323 75.576 35.4122 73.903 35.4122H66.4672C64.7942 35.4122 63.3701 36.8323 63.3701 38.5008C63.3701 40.1692 64.7942 41.5878 66.4672 41.5878H73.903ZM3.097 35.4137C1.42401 35.4137 0 36.8323 0 38.5008C0 40.1692 1.42401 41.5878 3.097 41.5878H10.5328C12.2058 41.5878 13.6298 40.1692 13.6298 38.5008C13.6298 36.8323 12.2058 35.4122 10.5328 35.4122L3.097 35.4137ZM60.4523 56.063C59.8641 55.4991 59.0798 55.1842 58.2639 55.1842C57.448 55.1842 56.6637 55.4991 56.0755 56.063C54.902 57.2349 54.902 59.2227 56.0755 60.4279L61.4148 65.7526C62.6247 66.9229 64.6181 66.8881 65.7916 65.7178C67.0015 64.5459 67.0015 62.5596 65.7916 61.3529L60.4523 56.063ZM11.2084 61.3166C9.99846 62.4869 9.99846 64.5096 11.172 65.6799C12.347 66.8517 14.3753 66.8866 15.5837 65.7162L20.885 60.4279C22.0601 59.2576 22.0601 57.2697 20.9215 56.0646C19.7464 54.8927 17.7182 54.8927 16.5098 56.0646L11.2084 61.3166ZM41.594 66.4611C41.594 64.7927 40.1715 63.3726 38.4985 63.3726C36.8255 63.3726 35.403 64.7927 35.403 66.4611V73.913C35.403 75.5799 36.827 77 38.5 77C40.17 77 41.594 75.5799 41.594 73.9115V66.4611Z" fill="#7E7E7E"/>
</svg>
